<?xml version="1.0" encoding="UTF-8" standalone="no"?>
<svg
   xmlns:dc="http://purl.org/dc/elements/1.1/"
   xmlns:cc="http://creativecommons.org/ns#"
   xmlns:rdf="http://www.w3.org/1999/02/22-rdf-syntax-ns#"
   xmlns:svg="http://www.w3.org/2000/svg"
   xmlns="http://www.w3.org/2000/svg"
   xmlns:sodipodi="http://sodipodi.sourceforge.net/DTD/sodipodi-0.dtd"
   xmlns:inkscape="http://www.inkscape.org/namespaces/inkscape"
   viewBox="0 0 39.152329 45.000001"
   height="45"
   width="39.152328"
   xml:space="preserve"
   version="1.1"
   id="svg2"
   inkscape:version="0.48.5 r10040"
   sodipodi:docname="ugs-logo.svg"><sodipodi:namedview
     pagecolor="#ffffff"
     bordercolor="#666666"
     borderopacity="1"
     objecttolerance="10"
     gridtolerance="10"
     guidetolerance="10"
     inkscape:pageopacity="0"
     inkscape:pageshadow="2"
     inkscape:window-width="1092"
     inkscape:window-height="840"
     id="namedview3146"
     showgrid="false"
     fit-margin-right="0.1"
     fit-margin-top="0"
     fit-margin-left="0"
     fit-margin-bottom="0"
     inkscape:zoom="5.6568542"
     inkscape:cx="-7.6567036"
     inkscape:cy="5.7981129"
     inkscape:window-x="681"
     inkscape:window-y="100"
     inkscape:window-maximized="0"
     inkscape:current-layer="svg2" /><metadata
     id="metadata8"><rdf:RDF><cc:Work
         rdf:about=""><dc:format>image/svg+xml</dc:format><dc:type
           rdf:resource="http://purl.org/dc/dcmitype/StillImage" /></cc:Work></rdf:RDF></metadata><defs
     id="defs6"><clipPath
       id="clipPath18"
       clipPathUnits="userSpaceOnUse"><path
         id="path20"
         d="m 0,0 2204.53,0 0,2540 L 0,2540 0,0 z"
         inkscape:connector-curvature="0" /></clipPath></defs><g
     id="g3261"
     transform="matrix(0.80348302,0,0,0.80348302,1.0141267e-6,0.00495173)"><path
       inkscape:connector-curvature="0"
       d="m 20.443654,7.6168909 0,3.4587711 0.912888,0 0,-1.5261101 1.343515,0 0,1.5261101 0.912976,0 0,-3.4587711 -0.912976,0 0,1.2641887 -1.343515,0 0,-1.2641887 -0.912888,0 z m -2.593306,0.8891652 0.432919,1.2364092 -0.865508,0 0.432589,-1.2364092 z m 0.653392,1.8702669 0.244173,0.699339 0.942586,0 -1.304734,-3.4587711 -1.048545,0 -1.305174,3.4587711 0.920648,0 0.244592,-0.699339 1.306454,0 z m 28.374202,-0.483716 -16.630233,0 L 28.398828,-0.00616283 1.7504279,1.593144 25.425316,2.1917265 l 3.847905,10.1256355 14.852344,0.07673 -1.800819,15.791556 -2.505007,-2.269984 -0.964126,-0.624378 -2.379999,4.227559 2.691306,-2.58989 3.040976,2.280567 -1.441228,12.635031 1.19496,0.762614 0.890929,1.456661 -0.450425,0.50907 0.50841,0.507947 -0.100095,0.851067 0.212315,0.5516 -0.524945,-0.515861 -0.133165,-0.82126 -1.167402,-0.509335 1.001607,-0.776041 -0.470929,-0.773461 -1.426677,-0.480387 2.2e-4,-0.004 -0.0093,-0.0021 -0.539055,-1.054563 -0.615779,0.07545 c 0,0 -0.231717,-0.30143 -1.078331,-0.753575 -0.847496,-0.452652 -0.539275,-2.034541 -0.539275,-2.034541 l -0.633858,-0.172851 -0.162268,-0.408557 -0.231937,-0.08001 0.180346,-0.271467 0.790615,-0.236325 0.441826,-0.363934 -0.15411,-1.25473 -0.230614,-0.828998 -0.385165,-0.376788 -0.15389,-0.979558 -1.155276,-1.958898 -0.231275,-0.602771 -0.846835,0 0.07695,-0.376788 0.538614,0 0.616221,-0.300944 0.15433,-1.582551 0,-0.904378 -1.001165,-0.301165 -0.07717,-0.451969 0.77033,-0.150803 0.539055,0.225984 0.616221,-0.301606 0.46211,-1.05474 -0.15411,-0.678173 0,-0.828756 0.307779,-0.0754 0,-0.979559 -0.153669,-3.164882 -2.156881,-0.225984 -2.079055,-0.301165 -2.695055,0.828976 0,0.828535 -0.46211,0.602992 0.230835,2.712693 0.692724,1.05496 -0.07672,0.451748 0.616441,1.657732 0.770551,0 0,1.205102 -0.462771,0 0.153669,2.03474 0.61622,0.376347 -1.001165,1.281385 -1.001165,1.129877 0,1.432475 -0.307779,0.15012 -0.15389,0.828998 -0.847055,0.376788 -0.231496,1.2809 0.615779,0.52715 0.964126,-0.150539 -0.137795,0.496063 -0.67178,0.03126 -0.154551,0.602772 -0.692504,1.205785 0.384945,1.055005 -0.769889,0 0.153669,1.431505 0.07474,1.280041 0.160504,0.84485 0.20526,0.502699 0,0.753729 0.308,0.904378 -0.46211,-0.552482 -0.450866,-0.406573 0.142645,-0.950192 0.0055,-0.115572 -0.137354,-0.30176 -0.539937,-2.260702 -0.230394,-0.376788 -0.231275,-0.452497 -0.384945,0 -0.847055,-0.149855 -1.002047,-0.979537 -0.846173,0.602772 -0.154551,0.979117 -0.46189,0.302202 -0.308,0.677953 -0.153669,1.054563 -0.231276,0.904113 -0.692945,0.527569 -0.658308,1.323363 L 5.4136319,51.319173 -1.6984762e-6,56 48.6038,55.982345 46.877942,9.892607 z m -36.604018,24.483438 5.637986,4.167369 -1.409392,-2.528554 2.536734,-1.17073 5.632805,0.772072 4.679527,-3.643946 2.994015,1.234205 0.180346,-0.257512 1.545071,-1.37707 -1.612315,0.201511 -0.370614,-0.09767 -1.667433,-0.845732 -7.072291,2.937133 -8.819337,1.311172 -2.182589,-3.117061 -1.4823238,0.447338 -7.87672485,3.136242 c 0,0 7.95724135,-1.918132 9.28653565,-1.168768 z m 4.257013,-23.300383 0,-2.7905193 1.105802,0 0,-0.6682518 -3.124491,0 0,0.6682518 1.105801,0 0,2.7905193 0.912888,0 z m -5.9045151,-3.4587711 0,2.2095744 c 0,0.4257317 0.1326141,0.7526927 0.3977102,0.9799997 0.2647212,0.227748 0.6564124,0.341512 1.1740159,0.341512 0.517162,0 0.909007,-0.113764 1.174699,-0.341512 0.26611,-0.227307 0.398746,-0.555149 0.398746,-0.9826454 l 0,-2.2069287 -0.916349,0 0,2.1568815 c 0,0.2493546 -0.05269,0.4301416 -0.157594,0.5434646 -0.105496,0.112882 -0.27171,0.169323 -0.499502,0.169323 -0.2312539,0 -0.3983279,-0.05865 -0.5008035,-0.176378 C 9.594428,10.192449 9.5427493,10.013646 9.5427493,9.7737724 l 0,-2.1568815 -0.9163274,0"
       style="fill:#ea6e14;fill-opacity:1;fill-rule:nonzero;stroke:none"
       id="path22" /><path
       inkscape:connector-curvature="0"
       d="M 9.1448627,18.545267 8.8115746,17.89333 8.1449984,17.567031 l -1.4662297,0 -0.133496,0.130519 0,5.543338 0.1998141,0.195779 1.3999116,0 0.6665762,-0.325858 0.3332881,-0.652378 0,-3.913164 z m 0.2665512,6.587054 -5.1991802,0 0.2665512,-1.043496 0,-7.043432 -0.2665512,-1.043716 5.1991802,0 1.8666961,1.826173 0,5.478298 -1.8666961,1.826173"
       style="fill:#3f2f09;fill-opacity:1;fill-rule:nonzero;stroke:none"
       id="path24" /><path
       inkscape:connector-curvature="0"
       d="m 20.571109,16.306811 0,9.82888 -2.106547,0 -3.48364,-6.817007 -0.323985,-0.792378 0.08096,0.792378 0,5.548629 0.323984,1.268378 -2.754604,0 0.324249,-1.268378 0,-8.560502 -0.405207,-1.268378 3.159811,0 2.835407,5.548629 0.323984,0.792598 -0.08096,-0.792598 0,-4.280251 -0.323984,-1.268378 2.754339,0 -0.323808,1.268378"
       style="fill:#3f2f09;fill-opacity:1;fill-rule:nonzero;stroke:none"
       id="path26" /><path
       inkscape:connector-curvature="0"
       d="m 26.570009,18.414968 -0.266551,-0.521638 -0.666709,-0.326299 -1.599747,0 -0.133386,0.130519 0,2.217512 0.133386,0.130299 1.599747,0 0.666709,-0.326079 0.266551,-0.521637 0,-0.782677 z m -0.133165,6.717353 -1.133228,-3.391307 -0.266551,-0.130299 -1.000063,0 -0.133386,0.130299 0,2.347811 0.266551,1.043496 -2.532875,0 0.266551,-1.043496 0,-7.043432 -0.266551,-1.043716 5.46626,0 1.599528,1.565354 0,2.217511 -1.466583,1.434835 0.999843,2.673668 0.733291,1.239276 -2.532787,0"
       style="fill:#3f2f09;fill-opacity:1;fill-rule:nonzero;stroke:none"
       id="path28" /><path
       inkscape:connector-curvature="0"
       d="m 31.338607,25.425108 -0.496063,0.248031 -0.602551,0.148819 -0.359591,0.100756 -0.420661,-0.276252 1.355244,-0.166236"
       style="fill:#ffffff;fill-opacity:1;fill-rule:nonzero;stroke:none"
       id="path30" /><path
       inkscape:connector-curvature="0"
       d="m 29.930008,24.851659 0.342394,0.09017 0.211874,0 0.137795,0.06989 0.523622,-0.110236 -0.633858,0.358268 -0.581827,-0.408095"
       style="fill:#ffffff;fill-opacity:1;fill-rule:nonzero;stroke:none"
       id="path32" /></g></svg>